<svg width="64" height="64" viewBox="0 0 64 64" fill="none" xmlns="http://www.w3.org/2000/svg">
<path d="M21.5996 32.5708C21.4809 32.579 21.3692 32.6299 21.2852 32.7141C21.2012 32.7983 21.1505 32.9101 21.1426 33.0288V34.3998C21.1426 34.6288 21.3706 34.8568 21.5996 34.8568C21.9426 34.8568 22.2856 34.9708 22.6276 35.1998C23.6576 35.6568 24.4576 36.6858 24.5706 37.8288C24.5706 38.0568 24.7996 38.2858 25.0276 38.2858H26.3996C26.5181 38.2776 26.6296 38.2269 26.7136 38.1429C26.7976 38.0589 26.8484 37.9473 26.8566 37.8288C26.6276 35.1998 24.6856 32.9138 21.5996 32.5708Z" fill="#757575"/>
<path d="M21.1431 50.286C18.0571 50.286 14.9711 49.143 12.6861 46.743C11.5723 45.6342 10.6885 44.3163 10.0854 42.865C9.48233 41.4137 9.17188 39.8576 9.17188 38.286C9.17188 36.7143 9.48233 35.1582 10.0854 33.7069C10.6885 32.2556 11.5723 30.9377 12.6861 29.829C17.3711 25.143 25.0291 25.143 29.6001 29.829C34.1711 34.514 34.2861 42.171 29.6001 46.743C27.3141 49.143 24.2281 50.286 21.1431 50.286ZM21.1431 29.714C18.9711 29.714 16.8001 30.514 15.0861 32.229C11.7711 35.543 11.7711 41.029 15.0861 44.343C18.4001 47.657 23.8861 47.657 27.2001 44.343C30.5141 41.029 30.5141 35.543 27.2001 32.229C26.4081 31.4285 25.4646 30.7938 24.4247 30.362C23.3847 29.9301 22.2691 29.7099 21.1431 29.714Z" fill="#757575"/>
<path d="M36.4569 52.6858L34.6279 54.5138C34.3999 54.7428 34.1709 54.7428 33.9429 54.5138L26.6279 47.1998L29.0279 44.7998L36.3429 52.1138C36.6859 52.2288 36.6859 52.4568 36.4569 52.6858Z" fill="#757575"/>
<path d="M46.1711 42.5141C48.0001 40.6861 50.4001 39.7711 52.8001 39.8861C53.0291 39.8861 53.1431 39.7711 53.2571 39.6571L54.5141 36.6861C54.6291 36.4571 54.5141 36.3431 54.4001 36.2291C52.6861 34.5141 51.5431 32.2291 51.5431 29.7141C51.5431 27.0861 52.5711 24.8001 54.4001 23.2001C54.5141 23.0861 54.6291 22.8571 54.5141 22.7431L53.2571 19.7711C53.1431 19.5431 53.0291 19.5431 52.8001 19.5431C50.4001 19.5431 48.0001 18.7431 46.1711 16.9141C44.3431 15.0861 43.4291 12.6861 43.5431 10.2861C43.5431 10.0571 43.4291 9.94315 43.3141 9.82915L40.3431 8.57014C40.1141 8.45614 40.0001 8.57015 39.8861 8.68515C38.1711 10.3991 35.8861 11.5421 33.3711 11.5421C30.7431 11.5421 28.4571 10.5131 26.8571 8.68515C26.7431 8.57015 26.5141 8.45614 26.4001 8.57014L23.4291 9.83014C23.2001 9.94414 23.2001 10.0581 23.2001 10.2871C23.2001 12.6871 22.4001 15.0871 20.5711 16.9151C18.7431 18.7441 16.3431 19.6581 13.9431 19.5441C13.7141 19.5441 13.6001 19.6581 13.4861 19.7721L12.4571 22.2871C12.3431 22.5151 12.5711 22.8581 12.8001 22.9721C16.4571 23.3151 20.1141 22.1721 22.9711 19.3151C24.7431 17.5376 25.9381 15.2672 26.4001 12.8001C27.0861 13.2571 27.8861 13.7141 28.6861 14.0571C30.1711 14.6291 31.7711 14.9711 33.4861 14.9711C36.1141 14.9711 38.5141 14.1711 40.5711 12.8001C41.0291 15.2001 42.1711 17.4861 44.0001 19.3141C45.1431 20.4571 46.5141 21.3711 48.1141 22.0571C48.9141 22.4001 49.7141 22.6291 50.5141 22.7431C49.1431 24.8001 48.3431 27.2001 48.3431 29.8291C48.3431 32.4571 49.1431 34.8571 50.5141 36.9141C48.1141 37.3711 45.8291 38.5141 44.0001 40.3431C41.6001 42.7431 40.3431 45.8291 40.3431 49.2571C40.3431 49.8291 40.4571 50.5141 40.4571 51.0861L43.4291 49.8291C43.6571 49.7141 43.6571 49.6001 43.6571 49.3711C43.4291 46.7431 44.3431 44.3431 46.1711 42.5141Z" fill="#757575"/>
<path d="M34.5143 19.4289C30.8573 19.1999 27.6573 20.7999 25.8293 23.5429C25.6003 23.7709 25.8293 24.1139 26.0573 24.2289L27.4293 24.6859C27.6573 24.7999 27.7713 24.6859 27.8863 24.5709C29.2573 22.7429 31.5433 21.5999 34.0573 21.7139C37.7143 21.8289 40.8003 24.7999 41.1433 28.4569C41.4863 31.9999 39.3143 34.9709 36.3433 36.1139C36.1143 36.2289 36.0003 36.3429 36.0003 36.5709V38.0569C36.0003 38.3999 36.3433 38.6289 36.5713 38.5139C40.8003 37.2569 43.7713 33.1429 43.4293 28.4569C42.9713 23.6569 39.2003 19.7709 34.5143 19.4289Z" fill="#757575"/>
</svg>
