<svg width="64" height="64" viewBox="0 0 64 64" fill="none" xmlns="http://www.w3.org/2000/svg">
<path d="M45.6003 38.857H34.7434C34.6248 38.8488 34.5133 38.7981 34.4293 38.7141C34.3453 38.6301 34.2945 38.5185 34.2864 38.4V35.886C34.2864 35.657 34.5144 35.429 34.7434 35.429H45.6003C48.1143 35.429 50.4004 33.943 51.4294 31.657L54.4004 24.686C54.6294 24.114 54.4004 23.657 54.2864 23.543C54.1723 23.429 53.8294 22.971 53.2574 22.971H44.9144C44.6864 22.971 44.4574 22.743 44.4574 22.4L44.6864 20.914C45.7144 13.829 44.3434 11.543 43.4294 10.857C42.6294 10.286 41.8294 10.286 41.1434 10.4V16C41.1434 16.114 41.1434 16.229 41.0294 16.343L34.1703 23.2C33.9423 23.429 33.7134 23.429 33.4854 23.2L31.6564 21.371C31.4284 21.143 31.4284 20.914 31.6564 20.686L37.7134 14.629V7.77002L38.7424 7.31302C38.8564 7.19902 42.5133 5.71302 45.3703 7.99902C47.8853 9.94202 48.8004 13.599 48.2284 19.313H53.0284C54.2854 19.313 55.5424 19.656 56.3424 20.57C57.8284 21.942 58.2854 24.113 57.4854 25.828L54.5144 32.8C53.0294 36.571 49.4863 38.857 45.6003 38.857Z" fill="#757575"/>
<path d="M28.1136 27.4291H17.5996C17.4809 27.4209 17.3692 27.37 17.2852 27.2858C17.2012 27.2015 17.1505 27.0898 17.1426 26.9711V25.6001C17.1426 25.3711 17.3706 25.1431 17.5996 25.1431H28.1136C28.3426 25.1431 28.5706 25.3711 28.5706 25.6001V26.9711C28.5626 27.0898 28.512 27.2015 28.428 27.2858C28.3439 27.37 28.2322 27.4209 28.1136 27.4291ZM28.1136 33.1431H17.5996C17.4811 33.1349 17.3695 33.0841 17.2855 33.0001C17.2015 32.9161 17.1507 32.8046 17.1426 32.6861V31.3141C17.1426 31.0861 17.3706 30.8571 17.5996 30.8571H28.1136C28.3426 30.8571 28.5706 31.0861 28.5706 31.3141V32.6861C28.5624 32.8046 28.5116 32.9161 28.4276 33.0001C28.3436 33.0841 28.2321 33.1349 28.1136 33.1431ZM24.6856 38.8571H17.5996C17.4811 38.8489 17.3695 38.7981 17.2855 38.7141C17.2015 38.6301 17.1507 38.5186 17.1426 38.4001V37.0291C17.1426 36.8001 17.3706 36.5711 17.5996 36.5711H24.6856C24.9136 36.5711 25.1426 36.8001 25.1426 37.0291V38.4001C25.1344 38.5186 25.0836 38.6301 24.9996 38.7141C24.9156 38.7981 24.8041 38.8489 24.6856 38.8571Z" fill="#757575"/>
<path d="M49.8276 42.2859H47.3136C47.1951 42.2941 47.0835 42.3449 46.9995 42.4289C46.9155 42.5129 46.8647 42.6244 46.8566 42.7429V45.7139H40.4566C40.3381 45.7221 40.2265 45.7729 40.1425 45.8569C40.0585 45.9409 40.0077 46.0524 39.9996 46.1709V49.0289L35.5426 45.8289C35.4286 45.8289 35.3136 45.7139 35.3136 45.7139H13.9426C13.1426 45.7139 12.5706 45.1429 12.5706 44.3429V19.6569C12.5706 18.8569 13.1426 18.2859 13.9426 18.2859H28.1136C28.2321 18.2778 28.3436 18.227 28.4276 18.143C28.5116 18.059 28.5624 17.9474 28.5706 17.8289V15.3139C28.5624 15.1954 28.5116 15.0839 28.4276 14.9999C28.3436 14.9159 28.2321 14.8651 28.1136 14.8569H13.5996C11.0856 14.8569 9.14258 16.7999 9.14258 19.3139V44.6859C9.14258 47.1999 11.0856 49.1429 13.5996 49.1429H34.7426L42.7426 54.6289C43.0856 54.8569 43.4276 54.6289 43.4276 54.2859V49.1429H49.8276C49.9463 49.135 50.0581 49.0843 50.1423 49.0003C50.2265 48.9163 50.2774 48.8046 50.2856 48.6859V42.7429C50.2774 42.6243 50.2265 42.5126 50.1423 42.4286C50.0581 42.3445 49.9463 42.2939 49.8276 42.2859Z" fill="#757575"/>
</svg>
