<svg width="64" height="64" viewBox="0 0 64 64" fill="none" xmlns="http://www.w3.org/2000/svg">
<g clip-path="url(#clip0_39_833)">
<path d="M20.0001 22.8572C20.4547 22.8572 20.8907 22.6766 21.2121 22.3552C21.5336 22.0337 21.7141 21.5978 21.7141 21.1432C21.7141 20.6886 21.5336 20.2527 21.2121 19.9312C20.8907 19.6098 20.4547 19.4292 20.0001 19.4292C19.5456 19.4292 19.1096 19.6098 18.7882 19.9312C18.4667 20.2527 18.2861 20.6886 18.2861 21.1432C18.2861 21.5978 18.4667 22.0337 18.7882 22.3552C19.1096 22.6766 19.5456 22.8572 20.0001 22.8572ZM25.7141 22.8572C26.1687 22.8572 26.6047 22.6766 26.9261 22.3552C27.2476 22.0337 27.4281 21.5978 27.4281 21.1432C27.4281 20.6886 27.2476 20.2527 26.9261 19.9312C26.6047 19.6098 26.1687 19.4292 25.7141 19.4292C25.2596 19.4292 24.8236 19.6098 24.5022 19.9312C24.1807 20.2527 24.0001 20.6886 24.0001 21.1432C24.0001 21.5978 24.1807 22.0337 24.5022 22.3552C24.8236 22.6766 25.2596 22.8572 25.7141 22.8572ZM31.4281 22.8572C31.8827 22.8572 32.3187 22.6766 32.6401 22.3552C32.9616 22.0337 33.1421 21.5978 33.1421 21.1432C33.1421 20.6886 32.9616 20.2527 32.6401 19.9312C32.3187 19.6098 31.8827 19.4292 31.4281 19.4292C30.9736 19.4292 30.5376 19.6098 30.2162 19.9312C29.8947 20.2527 29.7141 20.6886 29.7141 21.1432C29.7141 21.5978 29.8947 22.0337 30.2162 22.3552C30.5376 22.6766 30.9736 22.8572 31.4281 22.8572Z" fill="#757575"/>
<path d="M52.1141 20.8002L42.7431 30.1712L37.3701 24.8002C37.1421 24.5712 36.9131 24.5712 36.6851 24.8002L27.6561 33.8292C27.4271 34.0572 27.4271 34.2862 27.6561 34.5142L29.4851 36.3432C29.7131 36.5712 29.9421 36.5712 30.1701 36.3432L37.1421 29.3712L42.5131 34.7432C42.7421 34.9712 42.9701 34.9712 43.1991 34.7432L54.6271 23.3142C54.8561 23.0862 54.8561 22.8572 54.6271 22.6292L52.8001 20.8002C52.6946 20.7438 52.5768 20.7144 52.4571 20.7144C52.3375 20.7144 52.2197 20.7438 52.1141 20.8002Z" fill="#757575"/>
<path d="M52.5707 41.2568V37.0298C52.5628 36.9111 52.5121 36.7993 52.4281 36.7151C52.3441 36.6309 52.2324 36.58 52.1137 36.5718H49.5997C49.481 36.58 49.3694 36.6309 49.2853 36.7151C49.2013 36.7993 49.1507 36.9111 49.1427 37.0298V41.2578C49.1427 41.8298 48.6857 42.2868 48.1137 42.2868H18.7427C18.6242 42.295 18.5126 42.3457 18.4286 42.4297C18.3447 42.5137 18.2939 42.6253 18.2857 42.7438V45.2578C18.2857 45.4868 18.5137 45.7148 18.7427 45.7148H23.9997V50.2868H21.0287C20.91 50.2947 20.7982 50.3454 20.714 50.4294C20.6298 50.5134 20.5789 50.6251 20.5707 50.7438V53.2578C20.5707 53.4868 20.7997 53.7148 21.0277 53.7148H42.9707C43.0894 53.7069 43.2012 53.6562 43.2854 53.5722C43.3696 53.4882 43.4205 53.3765 43.4287 53.2578V50.7438C43.4205 50.6251 43.3696 50.5134 43.2854 50.4294C43.2012 50.3454 43.0894 50.2947 42.9707 50.2868H39.9997V45.7148H48.1137C50.6287 45.7148 52.5707 43.7708 52.5707 41.2568ZM36.5707 50.2858H27.4297V45.7138H36.5717L36.5707 50.2858ZM45.2567 12.5708H15.8857C13.3707 12.5708 11.4287 14.5138 11.4287 17.0288V38.3998C11.4287 38.6288 11.6567 38.8568 11.8857 38.8568H14.3997C14.5183 38.8488 14.63 38.7981 14.714 38.7141C14.798 38.6301 14.8487 38.5184 14.8567 38.3998V17.0288C14.8567 16.4568 15.3137 15.9998 15.8857 15.9998H45.2567C45.3752 15.9916 45.4868 15.9409 45.5708 15.8569C45.6548 15.7729 45.7055 15.6613 45.7137 15.5428V13.0288C45.7058 12.9101 45.6551 12.7983 45.5711 12.7141C45.4871 12.6299 45.3754 12.579 45.2567 12.5708Z" fill="#757575"/>
</g>
<defs>
<clipPath id="clip0_39_833">
<rect width="64" height="64" fill="white"/>
</clipPath>
</defs>
</svg>
