<svg width="64" height="64" viewBox="0 0 64 64" fill="none" xmlns="http://www.w3.org/2000/svg">
<g clip-path="url(#clip0_39_857)">
<path d="M54.3996 42.2859H51.4286V37.0289C51.4206 36.91 51.3698 36.7981 51.2856 36.7139C51.2013 36.6297 51.0894 36.5789 50.9706 36.5709H48.4566C48.3379 36.5791 48.2262 36.63 48.1422 36.7142C48.0582 36.7984 48.0075 36.9102 47.9996 37.0289V42.2859H15.9996V18.1699C15.9996 17.5989 16.4566 17.1419 17.0286 17.1419H29.2566C29.3751 17.1337 29.4866 17.083 29.5706 16.999C29.6546 16.915 29.7054 16.8034 29.7136 16.6849V14.1699C29.7054 14.0514 29.6546 13.9398 29.5706 13.8558C29.4866 13.7718 29.3751 13.7211 29.2566 13.7129H17.0276C14.5136 13.7129 12.5706 15.6559 12.5706 18.1699V42.2849H9.59958C9.48107 42.2931 9.36952 42.3438 9.28552 42.4278C9.20152 42.5118 9.15075 42.6234 9.14258 42.7419V45.2559C9.14258 45.4849 9.37058 45.7129 9.59958 45.7129H29.2566L23.9996 50.9709C23.7706 51.1999 23.7706 51.4289 23.9996 51.6569L25.8276 53.4859C26.0576 53.7139 26.2856 53.7139 26.5136 53.4859L32.1136 47.8859L37.7136 53.4859C37.9426 53.7139 38.1706 53.7139 38.3996 53.4859L40.2276 51.6569C40.4576 51.4289 40.4576 51.1999 40.2276 50.9709L34.9706 45.7139H54.6296C54.7481 45.7057 54.8596 45.6549 54.9436 45.5709C55.0276 45.487 55.0784 45.3754 55.0866 45.2569V42.7429C54.8576 42.5139 54.6286 42.2859 54.3996 42.2859Z" fill="#757575"/>
<path d="M19.4277 38.3999C19.4277 38.6289 19.6567 38.8569 19.8857 38.8569H32.6857C32.8042 38.8488 32.9158 38.798 32.9998 38.714C33.0838 38.63 33.1346 38.5184 33.1427 38.3999V37.0289C33.1348 36.9102 33.0841 36.7985 33.0001 36.7142C32.9161 36.63 32.8044 36.5791 32.6857 36.5709H19.8857C19.7671 36.5791 19.6554 36.63 19.5714 36.7142C19.4873 36.7985 19.4367 36.9102 19.4287 37.0289V38.3999H19.4277ZM19.8857 33.1429H25.8277C25.9464 33.135 26.0582 33.0843 26.1424 33.0003C26.2266 32.9163 26.2775 32.8046 26.2857 32.6859V31.3139C26.2775 31.1953 26.2266 31.0836 26.1424 30.9996C26.0582 30.9155 25.9464 30.8649 25.8277 30.8569H19.8857C19.7672 30.8651 19.6557 30.9159 19.5717 30.9999C19.4877 31.0839 19.4369 31.1954 19.4287 31.3139V32.6859C19.4287 32.9139 19.6567 33.1429 19.8857 33.1429Z" fill="#757575"/>
<path d="M45.7139 21.9431C47.4289 20.3431 48.3429 17.8291 47.8859 15.2001C47.6134 13.7549 46.9113 12.4255 45.8714 11.3855C44.8315 10.3456 43.5021 9.64356 42.0569 9.37107C40.975 9.15406 39.8584 9.18011 38.7879 9.44733C37.7173 9.71456 36.7194 10.2163 35.8665 10.9163C35.0135 11.6162 34.3267 12.497 33.8556 13.4948C33.3846 14.4926 33.1412 15.5827 33.1429 16.6861C33.1429 18.7431 34.0569 20.6861 35.4289 22.0571C31.9999 23.8861 29.7139 27.4291 29.7139 31.5431V32.8001C29.7139 33.0291 29.9429 33.2571 30.1719 33.2571H32.6859C32.8044 33.2489 32.9159 33.1981 32.9999 33.1141C33.0839 33.0301 33.1347 32.9186 33.1429 32.8001V31.7711C33.1429 28.0001 35.8859 24.5711 39.5429 24.1141C44.1139 23.5431 47.9999 27.0861 47.9999 31.4301V32.6871C47.9999 32.9151 48.2289 33.1441 48.4569 33.1441H50.9709C51.0896 33.1361 51.2013 33.0855 51.2856 33.0014C51.3698 32.9174 51.4207 32.8057 51.4289 32.6871V31.4301C51.4289 27.3151 49.1429 23.7711 45.7139 21.9431ZM40.5719 20.5711C38.3999 20.5711 36.5719 18.7431 36.5719 16.5711C36.5719 14.4001 38.3999 12.5711 40.5719 12.5711C42.7419 12.5711 44.5719 14.4001 44.5719 16.5711C44.5719 18.7431 42.7419 20.5711 40.5719 20.5711Z" fill="#757575"/>
</g>
<defs>
<clipPath id="clip0_39_857">
<rect width="64" height="64" fill="white"/>
</clipPath>
</defs>
</svg>
