<svg width="64" height="64" viewBox="0 0 64 64" fill="none" xmlns="http://www.w3.org/2000/svg">
<g clip-path="url(#clip0_39_841)">
<path d="M29.7137 39.9999H27.4297V23.3139C27.4297 23.0859 27.6577 22.8569 27.8867 22.8569H29.2577C29.4867 22.8569 29.7147 23.0859 29.7147 23.3139L29.7137 39.9999Z" fill="#757575"/>
<path d="M14.2856 18.171L9.36957 13.257C9.14157 13.029 8.91257 13.029 8.68457 13.257L6.85557 15.086C6.62757 15.314 6.62757 15.543 6.85557 15.771L13.8276 22.743C14.0556 22.971 14.2846 22.971 14.5126 22.743L25.4856 11.77C25.7136 11.542 25.7136 11.313 25.4856 11.085L23.6566 9.25596C23.4286 9.02796 23.1996 9.02796 22.9706 9.25596L14.2856 18.171Z" fill="#757575"/>
<path d="M49.1433 20.7998V10.2858C49.1433 9.94284 48.8003 9.71384 48.5713 9.82884L27.7713 15.9998C27.5433 16.1138 27.4293 16.2288 27.4293 16.4568V19.0858C27.4293 19.4288 27.7723 19.6568 28.0003 19.5428L45.7143 14.2858V43.9998L28.2303 38.8568H17.0303C16.895 38.8576 16.761 38.8316 16.6359 38.7803C16.5107 38.729 16.397 38.6535 16.3012 38.558C16.2055 38.4625 16.1296 38.349 16.0779 38.224C16.0263 38.099 15.9999 37.9651 16.0003 37.8298V27.8868C15.9921 27.7683 15.9413 27.6568 15.8573 27.5728C15.7733 27.4888 15.6618 27.438 15.5433 27.4298H13.0293C12.9108 27.438 12.7992 27.4888 12.7152 27.5728C12.6312 27.6568 12.5804 27.7683 12.5723 27.8868V37.8298C12.5723 40.3438 14.5143 42.2868 17.0293 42.2868H18.7433L22.0573 54.5148C22.0573 54.7438 22.2863 54.8578 22.5143 54.8578H33.1433C33.4863 54.8578 33.7143 54.5148 33.6003 54.2868L30.5143 43.0868L48.5723 48.4578C48.9143 48.5718 49.1433 48.3438 49.1433 48.0008V37.5998C53.0293 36.7998 56.0003 33.3708 56.0003 29.2568C56.0003 25.1428 53.0303 21.5998 49.1433 20.7998ZM24.6863 51.4288L22.1723 42.2858H26.6293L29.1433 51.4288H24.6863ZM49.1433 34.0568V24.3428C51.0863 25.0288 52.5713 26.9708 52.5713 29.1428C52.5713 31.3138 51.0863 33.2568 49.1433 34.0568Z" fill="#757575"/>
</g>
<defs>
<clipPath id="clip0_39_841">
<rect width="64" height="64" fill="white"/>
</clipPath>
</defs>
</svg>
