<svg width="64" height="62" viewBox="0 0 64 62" fill="none" xmlns="http://www.w3.org/2000/svg">
<path d="M21.5996 30.5708C21.4809 30.579 21.3692 30.6299 21.2852 30.7141C21.2012 30.7983 21.1505 30.9101 21.1426 31.0288V32.3998C21.1426 32.6288 21.3706 32.8568 21.5996 32.8568C21.9426 32.8568 22.2856 32.9708 22.6276 33.1998C23.6576 33.6568 24.4576 34.6858 24.5706 35.8288C24.5706 36.0568 24.7996 36.2858 25.0276 36.2858H26.3996C26.5181 36.2776 26.6296 36.2269 26.7136 36.1429C26.7976 36.0589 26.8484 35.9473 26.8566 35.8288C26.6276 33.1998 24.6856 30.9138 21.5996 30.5708Z" fill="#FF8057"/>
<path d="M21.1431 48.286C18.0571 48.286 14.9711 47.143 12.6861 44.743C11.5723 43.6342 10.6885 42.3163 10.0854 40.865C9.48233 39.4137 9.17188 37.8576 9.17188 36.286C9.17188 34.7143 9.48233 33.1582 10.0854 31.7069C10.6885 30.2556 11.5723 28.9377 12.6861 27.829C17.3711 23.143 25.0291 23.143 29.6001 27.829C34.1711 32.514 34.2861 40.171 29.6001 44.743C27.3141 47.143 24.2281 48.286 21.1431 48.286ZM21.1431 27.714C18.9711 27.714 16.8001 28.514 15.0861 30.229C11.7711 33.543 11.7711 39.029 15.0861 42.343C18.4001 45.6569 23.8861 45.6569 27.2001 42.343C30.5141 39.029 30.5141 33.543 27.2001 30.229C26.4081 29.4285 25.4646 28.7938 24.4247 28.362C23.3847 27.9301 22.2691 27.7099 21.1431 27.714Z" fill="#FF8057"/>
<path d="M36.4569 50.6858L34.6279 52.5138C34.3999 52.7428 34.1709 52.7428 33.9429 52.5138L26.6279 45.1998L29.0279 42.7998L36.3429 50.1138C36.6859 50.2288 36.6859 50.4568 36.4569 50.6858Z" fill="#FF8057"/>
<path d="M46.1711 40.5141C48.0001 38.6861 50.4001 37.7711 52.8001 37.8861C53.0291 37.8861 53.1431 37.7711 53.2571 37.6571L54.5141 34.6861C54.6291 34.4571 54.5141 34.3431 54.4001 34.2291C52.6861 32.5141 51.5431 30.2291 51.5431 27.7141C51.5431 25.0861 52.5711 22.8001 54.4001 21.2001C54.5141 21.0861 54.6291 20.8571 54.5141 20.7431L53.2571 17.7711C53.1431 17.5431 53.0291 17.5431 52.8001 17.5431C50.4001 17.5431 48.0001 16.7431 46.1711 14.9141C44.3431 13.0861 43.4291 10.6861 43.5431 8.28614C43.5431 8.05714 43.4291 7.94315 43.3141 7.82915L40.3431 6.57014C40.1141 6.45614 40.0001 6.57015 39.8861 6.68515C38.1711 8.39915 35.8861 9.54214 33.3711 9.54214C30.7431 9.54214 28.4571 8.51314 26.8571 6.68515C26.7431 6.57015 26.5141 6.45614 26.4001 6.57014L23.4291 7.83014C23.2001 7.94414 23.2001 8.05814 23.2001 8.28714C23.2001 10.6871 22.4001 13.0871 20.5711 14.9151C18.7431 16.7441 16.3431 17.6581 13.9431 17.5441C13.7141 17.5441 13.6001 17.6581 13.4861 17.7721L12.4571 20.2871C12.3431 20.5151 12.5711 20.8581 12.8001 20.9721C16.4571 21.3151 20.1141 20.1721 22.9711 17.3151C24.7431 15.5376 25.9381 13.2672 26.4001 10.8001C27.0861 11.2571 27.8861 11.7141 28.6861 12.0571C30.1711 12.6291 31.7711 12.9711 33.4861 12.9711C36.1141 12.9711 38.5141 12.1711 40.5711 10.8001C41.0291 13.2001 42.1711 15.4861 44.0001 17.3141C45.1431 18.4571 46.5141 19.3711 48.1141 20.0571C48.9141 20.4001 49.7141 20.6291 50.5141 20.7431C49.1431 22.8001 48.3431 25.2001 48.3431 27.8291C48.3431 30.4571 49.1431 32.8571 50.5141 34.9141C48.1141 35.3711 45.8291 36.5141 44.0001 38.3431C41.6001 40.7431 40.3431 43.8291 40.3431 47.2571C40.3431 47.8291 40.4571 48.5141 40.4571 49.0861L43.4291 47.8291C43.6571 47.7141 43.6571 47.6001 43.6571 47.3711C43.4291 44.7431 44.3431 42.3431 46.1711 40.5141Z" fill="#421983"/>
<path d="M34.5143 17.4289C30.8573 17.1999 27.6573 18.7999 25.8293 21.5429C25.6003 21.7709 25.8293 22.1139 26.0573 22.2289L27.4293 22.6859C27.6573 22.7999 27.7713 22.6859 27.8863 22.5709C29.2573 20.7429 31.5433 19.5999 34.0573 19.7139C37.7143 19.8289 40.8003 22.7999 41.1433 26.4569C41.4863 29.9999 39.3143 32.9709 36.3433 34.1139C36.1143 34.2289 36.0003 34.3429 36.0003 34.5709V36.0569C36.0003 36.3999 36.3433 36.6289 36.5713 36.5139C40.8003 35.2569 43.7713 31.1429 43.4293 26.4569C42.9713 21.6569 39.2003 17.7709 34.5143 17.4289Z" fill="#421983"/>
</svg>
