<svg width="64" height="64" viewBox="0 0 64 64" fill="none" xmlns="http://www.w3.org/2000/svg">
<g clip-path="url(#clip0_39_825)">
<path d="M33.8289 20.5711H22.1719C22.0531 20.5634 21.9412 20.5128 21.8569 20.4287C21.7727 20.3447 21.7219 20.2329 21.7139 20.1141V18.7431C21.7139 18.5141 21.9429 18.2861 22.1719 18.2861H33.8289C34.0569 18.2861 34.2859 18.5141 34.2859 18.7431V20.1141C34.2777 20.2326 34.2269 20.3442 34.1429 20.4282C34.0589 20.5122 33.9474 20.563 33.8289 20.5711ZM28.1139 26.2861H22.1719C22.0532 26.2782 21.9414 26.2275 21.8572 26.1435C21.773 26.0595 21.7221 25.9478 21.7139 25.8291V24.4571C21.7139 24.2291 21.9429 24.0001 22.1719 24.0001H28.1139C28.3429 24.0001 28.5709 24.2291 28.5709 24.4571V25.8291C28.5627 25.9476 28.5119 26.0592 28.4279 26.1432C28.3439 26.2272 28.2324 26.278 28.1139 26.2861Z" fill="#757575"/>
<path d="M29.5999 45.7141H22.1719C22.0532 45.7061 21.9414 45.6554 21.8572 45.5714C21.773 45.4874 21.7221 45.3757 21.7139 45.257V37.7141C21.7139 37.6 21.7139 37.486 21.8289 37.371L43.8859 15.4301C44.1139 15.2011 44.3429 15.2011 44.5709 15.4301L46.4009 17.258C46.6289 17.487 46.6289 17.7151 46.4009 17.9441L25.1419 38.9701V42.285H28.3419L49.4849 21.1421C49.7129 20.9131 49.9419 20.9131 50.1709 21.1421L51.9999 22.97C52.2289 23.199 52.2289 23.4281 51.9999 23.6561L29.9429 45.6C29.8289 45.714 29.7139 45.7141 29.5999 45.7141Z" fill="#757575"/>
<path d="M13.7139 14.7431V45.2571C13.7139 45.4861 13.9429 45.7141 14.1709 45.7141H16.6859C16.8044 45.706 16.9159 45.6552 16.9999 45.5712C17.0839 45.4872 17.1347 45.3756 17.1429 45.2571V14.7431C17.1429 14.1711 17.5999 13.7141 18.1719 13.7141H40.6859C40.8044 13.706 40.9159 13.6552 40.9999 13.5712C41.0839 13.4872 41.1347 13.3756 41.1429 13.2571V10.7431C41.1347 10.6246 41.0839 10.5131 40.9999 10.4291C40.9159 10.3451 40.8044 10.2943 40.6859 10.2861H18.1719C15.6569 10.2861 13.7139 12.2291 13.7139 14.7431ZM49.1429 49.2571V34.7431C49.1347 34.6246 49.0839 34.5131 48.9999 34.4291C48.9159 34.3451 48.8044 34.2943 48.6859 34.2861H46.1719C46.0532 34.2941 45.9414 34.3447 45.8572 34.4288C45.773 34.5128 45.7221 34.6245 45.7139 34.7431V49.2571C45.7139 49.8291 45.2569 50.2861 44.6859 50.2861H22.1719C22.0532 50.2941 21.9414 50.3447 21.8572 50.4288C21.773 50.5128 21.7221 50.6245 21.7139 50.7431V53.2571C21.7139 53.4861 21.9429 53.7141 22.1719 53.7141H44.6859C47.1999 53.7141 49.1429 51.7711 49.1429 49.2571Z" fill="#757575"/>
</g>
<defs>
<clipPath id="clip0_39_825">
<rect width="64" height="64" fill="white"/>
</clipPath>
</defs>
</svg>
