<svg width="68" height="68" viewBox="0 0 68 68" fill="none" xmlns="http://www.w3.org/2000/svg">
<g clip-path="url(#clip0_39_959)">
<path fill-rule="evenodd" clip-rule="evenodd" d="M32.9889 0.426008L18.8975 15.2795L0.413007 24.0926C0.323918 24.1352 0.244433 24.1956 0.17938 24.2699C0.114326 24.3442 0.0650637 24.431 0.0345841 24.525C0.00410461 24.6189 -0.00695545 24.7181 0.00207588 24.8165C0.0111072 24.9148 0.0400414 25.0103 0.0871207 25.0972L9.85859 43.0902L12.5286 63.3902C12.5415 63.4882 12.5743 63.5826 12.6249 63.6676C12.6756 63.7526 12.743 63.8264 12.823 63.8845C12.9031 63.9426 12.9942 63.9838 13.0907 64.0056C13.1872 64.0273 13.2871 64.0292 13.3843 64.0111L33.5149 60.2776L53.648 64.0111C54.0586 64.0881 54.4486 63.8046 54.5025 63.3902L57.1725 43.0902L66.9478 25.0959C66.9948 25.009 67.0237 24.9134 67.0326 24.815C67.0416 24.7166 67.0304 24.6173 66.9998 24.5234C66.9692 24.4294 66.9198 24.3426 66.8546 24.2684C66.7894 24.1941 66.7098 24.1338 66.6206 24.0913L48.1387 15.2769L34.0461 0.427291C33.978 0.355547 33.896 0.298414 33.8051 0.259372C33.7142 0.22033 33.6164 0.200195 33.5175 0.200195C33.4186 0.200195 33.3207 0.22033 33.2298 0.259372C33.1389 0.298414 33.0569 0.355547 32.9889 0.427291V0.426008Z" fill="#FFE84D"/>
</g>
<defs>
<clipPath id="clip0_39_959">
<rect width="68" height="64.1509" fill="white"/>
</clipPath>
</defs>
</svg>
