<svg width="73" height="86" viewBox="0 0 73 86" fill="none" xmlns="http://www.w3.org/2000/svg">
<path d="M72.5589 20.8486V20.4268H72.5235C72.3112 15.2245 68.7717 10.0574 61.8521 6.103C47.6588 -2.03433 24.6524 -2.03433 10.5476 6.103C3.48643 10.1805 -0.0176306 15.5233 6.66977e-05 20.8662V31.8859V32.0792V42.9055V43.0989V53.9252V54.1185V65.1382C0.0354613 70.4811 3.61031 75.8239 10.7069 79.8838C17.8212 83.9613 27.1123 86 36.3857 86C45.6767 86 54.9324 83.9613 62.0113 79.8838C69.0726 75.8064 72.5766 70.4635 72.5589 65.1382V54.1185V53.5034V43.0989V42.4486V32.044V31.4289V20.8486C72.5589 20.8662 72.5589 20.8486 72.5589 20.8486ZM17.9274 14.2403L19.8918 13.1155C20.3873 12.8343 21.166 12.8343 21.6792 13.1155L24.1038 14.504C24.6347 14.1876 25.1833 13.8888 25.7142 13.5725L23.2897 12.184C22.7942 11.9028 22.7942 11.4459 23.2897 11.1647L25.2541 10.0399C25.7496 9.75865 26.546 9.75865 27.0415 10.0399L30.1385 11.8149L30.5456 11.6919C34.0142 10.6374 37.6953 10.1629 41.6241 10.4441C44.7034 10.6726 47.4642 11.3931 49.9949 12.4477C50.9859 12.8519 51.9062 13.3088 52.738 13.7834C54.9324 15.0488 56.6137 16.5251 57.9233 18.1948L58.1887 18.6517C58.4896 19.2668 58.1356 19.6887 57.0915 19.9347C55.9943 20.2159 54.8793 20.462 53.7644 20.708C52.9857 20.8662 52.4371 20.831 51.9593 20.5498C51.8354 20.4795 51.7292 20.3917 51.6053 20.3038C50.862 19.6184 50.1896 18.8802 49.3932 18.2123C48.6853 17.5972 47.9066 17.0172 47.0217 16.5075C45.8537 15.8397 44.5087 15.2773 42.8983 14.8906C40.4914 14.2931 38.1377 14.4337 35.7663 14.9785L35.6778 14.9961L41.6772 18.4408C42.1727 18.722 42.1727 19.179 41.6772 19.4602L39.7128 20.585C39.2172 20.8662 38.4209 20.8662 37.9253 20.585L31.0411 16.6481C30.5279 16.9469 29.9793 17.2633 29.4306 17.5796L36.3149 21.5165C36.8104 21.7977 36.8104 22.2546 36.3149 22.5358L34.3505 23.6607C33.855 23.9419 33.0763 23.9419 32.5631 23.6607L26.2805 20.0577C24.8824 21.745 24.44 23.4146 26.0151 25.1546C26.6876 25.8927 27.5547 26.543 28.5635 27.123C29.4483 27.6327 30.4217 28.072 31.4658 28.4763C32.6339 28.8981 33.8727 29.2847 35.0761 29.7241C35.2707 29.7944 35.43 29.8647 35.5716 29.9526C36.0494 30.2338 36.1202 30.5501 35.8371 30.9895C35.43 31.6574 34.9699 32.3077 34.4744 32.9404C34.0673 33.5204 33.3064 33.7313 32.2091 33.5204C31.1119 33.2743 30.0324 32.9755 28.9705 32.6416C27.0238 32.0089 25.2718 31.2707 23.7498 30.392C22.1571 29.4781 20.8121 28.4235 19.7325 27.2284C17.2018 24.3812 17.2549 21.4813 19.3255 18.5638C19.7325 17.9839 20.2988 17.4742 20.7944 16.9293L17.8566 15.2421C17.4319 14.9785 17.4319 14.5215 17.9274 14.2403ZM10.7069 35.6118C24.9178 43.7667 47.8889 43.7667 62.0113 35.6118C64.2058 34.3464 66.0286 32.9404 67.5329 31.4641V32.0792C67.5506 35.7348 64.6128 39.5487 59.4806 42.5013C53.3928 46.0163 45.1989 47.9496 36.3857 47.9496C27.5724 47.9496 19.3255 46.0163 13.2022 42.5013C8.01694 39.5311 5.02609 35.6997 4.9907 32.0616V31.341C6.56576 32.8525 8.44167 34.3112 10.7069 35.6118ZM59.4983 64.5231C53.4105 68.0381 45.2166 69.9714 36.4034 69.9714C27.5901 69.9714 19.3432 68.0381 13.2199 64.5231C8.03463 61.5529 5.04379 57.7215 5.0084 54.0834V53.5561C6.56576 55.0852 8.42397 56.5263 10.7069 57.8269C17.8212 61.9044 27.1123 63.9431 36.3857 63.9431C45.6767 63.9431 54.9324 61.9044 62.0113 57.8269C64.2058 56.5615 66.0286 55.1555 67.5329 53.6791V54.1185C67.5683 57.7742 64.6305 61.5704 59.4983 64.5231ZM59.4983 53.521C53.4105 57.036 45.2166 58.9693 36.4034 58.9693C27.5901 58.9693 19.3432 57.036 13.2199 53.521C8.03463 50.5508 5.04379 46.7194 5.0084 43.0813V42.554C6.56576 44.0831 8.42397 45.5242 10.7069 46.8248C17.8212 50.9023 27.1123 52.941 36.3857 52.941C45.6767 52.941 54.9324 50.9023 62.0113 46.8248C64.2058 45.5594 66.0286 44.1534 67.5329 42.6771V43.1164C67.5683 46.7545 64.6305 50.5508 59.4983 53.521ZM59.4983 75.5427C53.4105 79.0578 45.2166 80.9911 36.4034 80.9911C27.5901 80.9911 19.3432 79.0578 13.2199 75.5427C8.03463 72.5725 5.04379 68.7411 5.0084 65.1031V64.5758C6.56576 66.1048 8.42397 67.546 10.7069 68.8466C17.8212 72.924 27.1123 74.9628 36.3857 74.9628C45.6767 74.9628 54.9324 72.924 62.0113 68.8466C64.2058 67.5812 66.0286 66.1751 67.5329 64.6988V65.1382C67.5683 68.7763 64.6305 72.5901 59.4983 75.5427Z" fill="#A6A6A6"/>
</svg>
